<svg width="25" height="25" viewBox="0 0 25 25" fill="none" xmlns="http://www.w3.org/2000/svg">
<g id="clarity:notification-line" clip-path="url(#clip0_1_1353)">
<path id="Vector" d="M22.4234 19.0531C21.7806 18.48 21.2177 17.823 20.7501 17.0998C20.2391 16.1017 19.9331 15.0114 19.8501 13.8931V10.5998C19.8545 8.84351 19.2175 7.14609 18.0586 5.82642C16.8998 4.50675 15.2989 3.65568 13.5568 3.43311V2.57311C13.5568 2.33706 13.463 2.11069 13.2961 1.94378C13.1292 1.77687 12.9028 1.68311 12.6668 1.68311C12.4307 1.68311 12.2044 1.77687 12.0375 1.94378C11.8705 2.11069 11.7768 2.33706 11.7768 2.57311V3.44644C10.0503 3.68506 8.46876 4.54128 7.32513 5.85651C6.1815 7.17174 5.55327 8.85687 5.55678 10.5998V13.8931C5.47382 15.0114 5.1678 16.1017 4.65678 17.0998C4.19737 17.8213 3.64358 18.4783 3.01011 19.0531C2.939 19.1156 2.88201 19.1925 2.84293 19.2787C2.80384 19.3649 2.78357 19.4585 2.78345 19.5531V20.4598C2.78345 20.6366 2.85369 20.8062 2.97871 20.9312C3.10373 21.0562 3.2733 21.1264 3.45011 21.1264H21.9834C22.1603 21.1264 22.3298 21.0562 22.4549 20.9312C22.5799 20.8062 22.6501 20.6366 22.6501 20.4598V19.5531C22.65 19.4585 22.6297 19.3649 22.5906 19.2787C22.5516 19.1925 22.4946 19.1156 22.4234 19.0531ZM4.17011 19.7931C4.79024 19.1938 5.33636 18.5223 5.79678 17.7931C6.44064 16.5877 6.8159 15.2573 6.89678 13.8931V10.5998C6.87034 9.81846 7.0014 9.03982 7.28214 8.31022C7.56289 7.58061 7.98759 6.91496 8.53095 6.35291C9.0743 5.79085 9.72521 5.34388 10.4449 5.03862C11.1646 4.73336 11.9384 4.57604 12.7201 4.57604C13.5019 4.57604 14.2756 4.73336 14.9953 5.03862C15.715 5.34388 16.3659 5.79085 16.9093 6.35291C17.4526 6.91496 17.8773 7.58061 18.1581 8.31022C18.4388 9.03982 18.5699 9.81846 18.5434 10.5998V13.8931C18.6243 15.2573 18.9996 16.5877 19.6434 17.7931C20.1039 18.5223 20.65 19.1938 21.2701 19.7931H4.17011Z" fill="black"/>
<path id="Vector_2" d="M12.7496 23.353C13.1695 23.3433 13.5725 23.1855 13.8873 22.9073C14.2021 22.6291 14.4083 22.2486 14.4696 21.833H10.9629C11.0259 22.2599 11.2418 22.6493 11.5704 22.9289C11.8991 23.2085 12.3181 23.3592 12.7496 23.353Z" fill="#0B090A"/>
</g>
<defs>
<clipPath id="clip0_1_1353">
<rect width="24" height="24" fill="white" transform="translate(0.75 0.5)"/>
</clipPath>
</defs>
</svg>
