<svg width="281" height="258" viewBox="0 0 281 258" fill="none" xmlns="http://www.w3.org/2000/svg">
<g id="Group 1171276595">
<circle id="Ellipse 95" cx="140.105" cy="128.802" r="17" transform="rotate(10.7912 140.105 128.802)" fill="#0B090A"/>
<path id="Ellipse 96" d="M206.717 224.467C203.083 226.986 197.775 227.067 191.028 224.662C184.309 222.266 176.383 217.477 167.755 210.64C150.511 196.974 130.647 175.278 112.282 148.781C93.917 122.285 80.5727 96.0698 73.8291 75.1258C70.4554 64.6475 68.7522 55.5447 68.8678 48.4125C68.9838 41.2505 70.9226 36.3087 74.5568 33.7898C78.1911 31.2708 83.499 31.1899 90.246 33.595C96.9651 35.9901 104.891 40.7799 113.519 47.6167C130.763 61.2822 150.627 82.9788 168.992 109.475C187.357 135.971 200.701 162.187 207.445 183.131C210.818 193.609 212.522 202.712 212.406 209.844C212.29 217.006 210.351 221.948 206.717 224.467Z" stroke="black" stroke-width="2"/>
<path id="Ellipse 97" d="M255.902 124.187C256.097 128.604 253.337 133.139 247.706 137.566C242.098 141.975 233.821 146.129 223.439 149.786C202.685 157.095 173.74 162.34 141.533 163.759C109.326 165.178 80.0318 162.499 58.716 157.043C48.0518 154.314 39.4417 150.904 33.4682 147.005C27.4699 143.09 24.3216 138.816 24.127 134.398C23.9323 129.981 26.6926 125.446 32.3234 121.019C37.9308 116.61 46.2077 112.456 56.5906 108.799C77.344 101.49 106.289 96.2449 138.496 94.8259C170.703 93.407 199.997 96.0864 221.313 101.542C231.977 104.271 240.587 107.681 246.561 111.58C252.559 115.495 255.708 119.769 255.902 124.187Z" stroke="black" stroke-width="2"/>
</g>
</svg>
