<svg width="176" height="161" viewBox="0 0 176 161" fill="none" xmlns="http://www.w3.org/2000/svg">
<g id="Group 1171276596">
<path id="Line 10" d="M13.1427 94.1637C12.6712 94.4513 12.6352 94.9684 13.0622 95.3186C13.4892 95.6688 14.2176 95.7196 14.6891 95.432L13.1427 94.1637ZM167.519 -0.000361383L13.1427 94.1637L14.6891 95.432L169.065 1.26794L167.519 -0.000361383Z" fill="#0B090A"/>
<path id="Line 11" d="M17.296 110.266C16.8245 110.554 16.7885 111.071 17.2155 111.421C17.6426 111.771 18.3709 111.822 18.8424 111.535L17.296 110.266ZM171.672 16.1022L17.296 110.266L18.8424 111.535L173.218 17.3705L171.672 16.1022Z" fill="#0B090A"/>
<path id="Line 12" d="M21.4484 126.368C20.9769 126.655 20.9408 127.172 21.3679 127.523C21.7949 127.873 22.5233 127.924 22.9948 127.636L21.4484 126.368ZM175.824 32.2037L21.4484 126.368L22.9948 127.636L177.371 33.472L175.824 32.2037Z" fill="#0B090A"/>
<path id="Line 13" d="M25.6007 142.47C25.1292 142.758 25.0932 143.275 25.5202 143.625C25.9472 143.975 26.6756 144.026 27.1471 143.739L25.6007 142.47ZM179.977 48.3063L25.6007 142.47L27.1471 143.739L181.523 49.5746L179.977 48.3063Z" fill="#0B090A"/>
<path id="Line 14" d="M29.754 158.572C29.2825 158.86 29.2465 159.377 29.6735 159.727C30.1006 160.077 30.829 160.128 31.3005 159.84L29.754 158.572ZM184.13 64.4078L29.754 158.572L31.3005 159.84L185.676 65.6761L184.13 64.4078Z" fill="#0B090A"/>
</g>
</svg>
