<svg width="24" height="25" viewBox="0 0 24 25" fill="none" xmlns="http://www.w3.org/2000/svg">
<g id="material-symbols:mail">
<path id="Vector" d="M4 20.5C3.45 20.5 2.97933 20.3043 2.588 19.913C2.19667 19.5217 2.00067 19.0507 2 18.5V6.5C2 5.95 2.196 5.47933 2.588 5.088C2.98 4.69667 3.45067 4.50067 4 4.5H20C20.55 4.5 21.021 4.696 21.413 5.088C21.805 5.48 22.0007 5.95067 22 6.5V18.5C22 19.05 21.8043 19.521 21.413 19.913C21.0217 20.305 20.5507 20.5007 20 20.5H4ZM12 13.5L20 8.5V6.5L12 11.5L4 6.5V8.5L12 13.5Z" fill="black"/>
</g>
</svg>
