<svg width="33" height="33" viewBox="0 0 33 33" fill="none" xmlns="http://www.w3.org/2000/svg">
<g id="material-symbols-light:search">
<rect width="32" height="32" transform="translate(0.5 0.5)" fill="white"/>
<path id="Vector" d="M26.4798 27.3721L18.1305 19.0227C17.4638 19.5907 16.6971 20.0303 15.8305 20.3414C14.9638 20.6525 14.0927 20.8081 13.2171 20.8081C11.082 20.8081 9.27493 20.0689 7.79582 18.5907C6.3167 17.1125 5.57715 15.3058 5.57715 13.1707C5.57715 11.0356 6.31581 9.22806 7.79315 7.74806C9.27048 6.26806 11.0767 5.52717 13.2118 5.52539C15.3469 5.52362 17.1549 6.26317 18.6358 7.74406C20.1167 9.22495 20.8571 11.0325 20.8571 13.1667C20.8571 14.0929 20.6931 14.9894 20.3651 15.8561C20.0371 16.7227 19.606 17.4641 19.0718 18.0801L27.4211 26.4281L26.4798 27.3721ZM13.2185 19.4734C14.9874 19.4734 16.4807 18.8645 17.6985 17.6467C18.9163 16.4289 19.5251 14.9352 19.5251 13.1654C19.5251 11.3956 18.9163 9.90228 17.6985 8.68539C16.4807 7.4685 14.9874 6.85962 13.2185 6.85873C11.4496 6.85784 9.95581 7.46673 8.73715 8.68539C7.51848 9.90406 6.90959 11.3974 6.91048 13.1654C6.91137 14.9334 7.52026 16.4267 8.73715 17.6454C9.95404 18.8641 11.4474 19.473 13.2171 19.4721" fill="#0B090A"/>
</g>
</svg>
