<svg width="34" height="34" viewBox="0 0 34 34" fill="none" xmlns="http://www.w3.org/2000/svg">
<g id="mdi:cash-on-delivery">
<path id="Vector" d="M26.2083 23.8C25.2167 23.8 24.5083 22.95 24.5083 22.1C24.5083 21.1083 25.3583 20.4 26.2083 20.4C27.0583 20.4 27.9083 21.25 27.9083 22.1C28.05 22.95 27.2 23.8 26.2083 23.8ZM26.2083 17C23.5167 17 21.25 19.2667 21.25 21.9583C21.25 25.6417 26.2083 31.1667 26.2083 31.1667C26.2083 31.1667 31.1667 25.6417 31.1667 21.9583C31.1667 19.2667 28.9 17 26.2083 17ZM21.1083 16.0083C20.6833 14.1667 18.9833 12.75 17 12.75C14.5917 12.75 12.75 14.5917 12.75 17C12.75 19.4083 14.5917 21.25 17 21.25C17.5667 21.25 17.9917 21.1083 18.4167 20.9667C18.7 18.9833 19.6917 17.2833 21.1083 16.0083ZM18.4167 22.6667H9.91667C9.91667 21.9152 9.61816 21.1946 9.0868 20.6632C8.55545 20.1318 7.83478 19.8333 7.08333 19.8333V14.1667C7.83478 14.1667 8.55545 13.8682 9.0868 13.3368C9.61816 12.8054 9.91667 12.0848 9.91667 11.3333H24.0833C24.0833 12.0848 24.3818 12.8054 24.9132 13.3368C25.4445 13.8682 26.1652 14.1667 26.9167 14.1667C26.9167 14.1667 28.3333 14.1667 29.75 15.0167V8.5H4.25V25.5H19.125C18.8417 24.5083 18.5583 23.6583 18.4167 22.6667Z" fill="black"/>
</g>
</svg>
