<svg width="24" height="25" viewBox="0 0 24 25" fill="none" xmlns="http://www.w3.org/2000/svg">
<g id="mingcute:youtube-fill" clip-path="url(#clip0_1_1377)">
<g id="Group">
<path id="Vector" fill-rule="evenodd" clip-rule="evenodd" d="M12 4.5C12.855 4.5 13.732 4.522 14.582 4.558L15.586 4.606L16.547 4.663L17.447 4.724L18.269 4.788C19.1612 4.85589 20.0008 5.23643 20.64 5.8626C21.2791 6.48877 21.6768 7.3204 21.763 8.211L21.803 8.636L21.878 9.546C21.948 10.489 22 11.517 22 12.5C22 13.483 21.948 14.511 21.878 15.454L21.803 16.364L21.763 16.789C21.6768 17.6798 21.2789 18.5115 20.6396 19.1377C20.0002 19.7639 19.1604 20.1443 18.268 20.212L17.448 20.275L16.548 20.337L15.586 20.394L14.582 20.442C13.7218 20.4793 12.861 20.4986 12 20.5C11.139 20.4986 10.2782 20.4793 9.418 20.442L8.414 20.394L7.453 20.337L6.553 20.275L5.731 20.212C4.83881 20.1441 3.9992 19.7636 3.36004 19.1374C2.72089 18.5112 2.32319 17.6796 2.237 16.789L2.197 16.364L2.122 15.454C2.04583 14.4711 2.00514 13.4858 2 12.5C2 11.517 2.052 10.489 2.122 9.546L2.197 8.636L2.237 8.211C2.32316 7.32055 2.72071 6.48905 3.35966 5.86291C3.99861 5.23676 4.83799 4.85612 5.73 4.788L6.551 4.724L7.451 4.663L8.413 4.606L9.417 4.558C10.2775 4.52073 11.1387 4.50139 12 4.5ZM10 10.075V14.925C10 15.387 10.5 15.675 10.9 15.445L15.1 13.02C15.1914 12.9674 15.2673 12.8916 15.3201 12.8003C15.3729 12.709 15.4007 12.6055 15.4007 12.5C15.4007 12.3945 15.3729 12.291 15.3201 12.1997C15.2673 12.1084 15.1914 12.0326 15.1 11.98L10.9 9.556C10.8088 9.50332 10.7053 9.4756 10.5999 9.47562C10.4945 9.47563 10.3911 9.50339 10.2998 9.5561C10.2086 9.6088 10.1329 9.6846 10.0802 9.77587C10.0276 9.86713 9.99993 9.97065 10 10.076V10.075Z" fill="black"/>
</g>
</g>
<defs>
<clipPath id="clip0_1_1377">
<rect width="24" height="24" fill="white" transform="translate(0 0.5)"/>
</clipPath>
</defs>
</svg>
