<svg width="24" height="25" viewBox="0 0 24 25" fill="none" xmlns="http://www.w3.org/2000/svg">
<g id="ph:question-fill">
<path id="Vector" d="M12 2.75C10.0716 2.75 8.18657 3.32183 6.58319 4.39317C4.97982 5.46451 3.73013 6.98726 2.99218 8.76884C2.25422 10.5504 2.06114 12.5108 2.43735 14.4021C2.81355 16.2934 3.74215 18.0307 5.10571 19.3943C6.46928 20.7579 8.20656 21.6865 10.0979 22.0627C11.9892 22.4389 13.9496 22.2458 15.7312 21.5078C17.5127 20.7699 19.0355 19.5202 20.1068 17.9168C21.1782 16.3134 21.75 14.4284 21.75 12.5C21.7473 9.91498 20.7192 7.43661 18.8913 5.60872C17.0634 3.78084 14.585 2.75273 12 2.75ZM12 18.5C11.7775 18.5 11.56 18.434 11.375 18.3104C11.19 18.1868 11.0458 18.0111 10.9606 17.8055C10.8755 17.6 10.8532 17.3738 10.8966 17.1555C10.94 16.9373 11.0472 16.7368 11.2045 16.5795C11.3618 16.4222 11.5623 16.315 11.7805 16.2716C11.9988 16.2282 12.225 16.2505 12.4305 16.3356C12.6361 16.4208 12.8118 16.565 12.9354 16.75C13.059 16.935 13.125 17.1525 13.125 17.375C13.125 17.6734 13.0065 17.9595 12.7955 18.1705C12.5845 18.3815 12.2984 18.5 12 18.5ZM12.75 13.9325V14C12.75 14.1989 12.671 14.3897 12.5303 14.5303C12.3897 14.671 12.1989 14.75 12 14.75C11.8011 14.75 11.6103 14.671 11.4697 14.5303C11.329 14.3897 11.25 14.1989 11.25 14V13.25C11.25 13.0511 11.329 12.8603 11.4697 12.7197C11.6103 12.579 11.8011 12.5 12 12.5C13.2403 12.5 14.25 11.6562 14.25 10.625C14.25 9.59375 13.2403 8.75 12 8.75C10.7597 8.75 9.75 9.59375 9.75 10.625V11C9.75 11.1989 9.67099 11.3897 9.53033 11.5303C9.38968 11.671 9.19892 11.75 9 11.75C8.80109 11.75 8.61033 11.671 8.46967 11.5303C8.32902 11.3897 8.25 11.1989 8.25 11V10.625C8.25 8.76406 9.93188 7.25 12 7.25C14.0681 7.25 15.75 8.76406 15.75 10.625C15.75 12.2544 14.46 13.6184 12.75 13.9325Z" fill="black"/>
</g>
</svg>
