<svg width="24" height="25" viewBox="0 0 24 25" fill="none" xmlns="http://www.w3.org/2000/svg">
<g id="ri:instagram-fill">
<path id="Vector" d="M13.0276 2.5C14.1526 2.503 14.7236 2.509 15.2166 2.523L15.4106 2.53C15.6346 2.538 15.8556 2.548 16.1226 2.56C17.1866 2.61 17.9126 2.778 18.5496 3.025C19.2096 3.279 19.7656 3.623 20.3216 4.178C20.8303 4.67773 21.2238 5.28247 21.4746 5.95C21.7216 6.587 21.8896 7.313 21.9396 8.378C21.9516 8.644 21.9616 8.865 21.9696 9.09L21.9756 9.284C21.9906 9.776 21.9966 10.347 21.9986 11.472L21.9996 12.218V13.528C22.002 14.2574 21.9944 14.9868 21.9766 15.716L21.9706 15.91C21.9626 16.135 21.9526 16.356 21.9406 16.622C21.8906 17.687 21.7206 18.412 21.4746 19.05C21.2238 19.7175 20.8303 20.3223 20.3216 20.822C19.8219 21.3307 19.2171 21.7242 18.5496 21.975C17.9126 22.222 17.1866 22.39 16.1226 22.44L15.4106 22.47L15.2166 22.476C14.7236 22.49 14.1526 22.497 13.0276 22.499L12.2816 22.5H10.9726C10.2429 22.5026 9.51312 22.4949 8.78359 22.477L8.58959 22.471C8.3522 22.462 8.11487 22.4517 7.87759 22.44C6.81359 22.39 6.08759 22.222 5.44959 21.975C4.78242 21.7241 4.17804 21.3306 3.67859 20.822C3.16954 20.3224 2.7757 19.7176 2.52459 19.05C2.27759 18.413 2.10959 17.687 2.05959 16.622L2.02959 15.91L2.02459 15.716C2.00616 14.9868 1.99782 14.2574 1.99959 13.528V11.472C1.99682 10.7426 2.00416 10.0132 2.02159 9.284L2.02859 9.09C2.03659 8.865 2.04659 8.644 2.05859 8.378C2.10859 7.313 2.27659 6.588 2.52359 5.95C2.77529 5.2822 3.16982 4.67744 3.67959 4.178C4.17875 3.66955 4.78278 3.27607 5.44959 3.025C6.08759 2.778 6.81259 2.61 7.87759 2.56C8.14359 2.548 8.36559 2.538 8.58959 2.53L8.78359 2.524C9.51278 2.50623 10.2422 2.49857 10.9716 2.501L13.0276 2.5ZM11.9996 7.5C10.6735 7.5 9.40174 8.02678 8.46406 8.96447C7.52638 9.90215 6.99959 11.1739 6.99959 12.5C6.99959 13.8261 7.52638 15.0979 8.46406 16.0355C9.40174 16.9732 10.6735 17.5 11.9996 17.5C13.3257 17.5 14.5974 16.9732 15.5351 16.0355C16.4728 15.0979 16.9996 13.8261 16.9996 12.5C16.9996 11.1739 16.4728 9.90215 15.5351 8.96447C14.5974 8.02678 13.3257 7.5 11.9996 7.5ZM11.9996 9.5C12.3936 9.49993 12.7837 9.57747 13.1477 9.72817C13.5117 9.87887 13.8424 10.0998 14.1211 10.3783C14.3997 10.6569 14.6207 10.9875 14.7715 11.3515C14.9224 11.7154 15 12.1055 15.0001 12.4995C15.0002 12.8935 14.9226 13.2836 14.7719 13.6476C14.6212 14.0116 14.4003 14.3423 14.1218 14.621C13.8432 14.8996 13.5126 15.1206 13.1486 15.2714C12.7847 15.4223 12.3946 15.4999 12.0006 15.5C11.2049 15.5 10.4419 15.1839 9.87927 14.6213C9.31666 14.0587 9.00059 13.2956 9.00059 12.5C9.00059 11.7044 9.31666 10.9413 9.87927 10.3787C10.4419 9.81607 11.2049 9.5 12.0006 9.5M17.2506 6C16.9191 6 16.6011 6.1317 16.3667 6.36612C16.1323 6.60054 16.0006 6.91848 16.0006 7.25C16.0006 7.58152 16.1323 7.89946 16.3667 8.13388C16.6011 8.3683 16.9191 8.5 17.2506 8.5C17.5821 8.5 17.9001 8.3683 18.1345 8.13388C18.3689 7.89946 18.5006 7.58152 18.5006 7.25C18.5006 6.91848 18.3689 6.60054 18.1345 6.36612C17.9001 6.1317 17.5821 6 17.2506 6Z" fill="black"/>
</g>
</svg>
